<?xml version="1.0" encoding="utf-8"?>
<!-- Generator: Adobe Illustrator 26.5.0, SVG Export Plug-In . SVG Version: 6.00 Build 0)  -->
<svg version="1.1" xmlns="http://www.w3.org/2000/svg" xmlns:xlink="http://www.w3.org/1999/xlink" x="0px" y="0px"
	 viewBox="0 0 50 50" style="enable-background:new 0 0 50 50;" xml:space="preserve">
<style type="text/css">
	.st0{display:none;}
	.st1{display:inline;}
	.st2{display:inline;fill:#3A3A3A;}
	.st3{fill:#FFFFFF;}
	.st4{display:inline;fill:#4F0D00;}
	.st5{display:inline;fill:#C96801;}
	.st6{display:inline;fill:#801501;}
	.st7{display:inline;fill:#983202;}
	.st8{display:inline;fill:#FFFAC4;}
	.st9{display:inline;fill:none;stroke:#000000;stroke-width:0.5;stroke-miterlimit:10;}
	.st10{display:inline;fill:none;stroke:#000000;stroke-width:0.5;stroke-linecap:round;stroke-miterlimit:10;}
	.st11{fill:none;stroke:#000000;stroke-linecap:round;stroke-miterlimit:10;}
	.st12{fill:#FFFFFF;stroke:#FFFFFF;stroke-width:2;stroke-miterlimit:10;}
	.st13{fill:#C96801;}
	.st14{fill:#983202;}
	.st15{fill:#FFFAC4;}
</style>
<g id="Layer_4" class="st0">
	<g id="H17ZtC_00000180327123850863732250000010465951680877377963_" class="st1">
		
			<image style="overflow:visible;" width="4500" height="4500" id="H17ZtC_00000029038326530763002190000007559361145929719437_" xlink:href="B84F6ADF.jpg"  transform="matrix(7.767568e-03 0 0 7.767568e-03 67.7449 -14.908)">
		</image>
	</g>
	<rect x="-5.6" y="-5.5" class="st2" width="61.8" height="59.7"/>
</g>
<g id="Border" class="st0">
	<g class="st1">
		<path class="st3" d="M52.9,28.7c-1.1-1-6.9-2.5-10.5-3.4c-2.1-2.2-6.1-3.1-7.8-3.5c-0.4-1.7-1.4-4.6-3.7-6.9l0,0l0,0
			c-0.1-0.1-0.2-0.2-0.4-0.4L30.4,14c-0.2-0.5-0.7-0.8-1.3-0.8l-0.4,0.1c-0.3-0.2-0.6-0.3-1-0.5c0.4,0,0.8-0.1,1-0.5l0,0L29,12
			L28.9,11l-0.3-0.3c0,0-0.1-0.1-0.1-0.1c0.2-0.2,0.4-0.5,0.6-0.7c0.1,0.1,0.1,0.1,0.2,0.1l0.2,0.1c0.6,0.2,1-0.1,1.2-0.4
			C31,9.4,30.9,9,30.8,8.6c0.3-0.1,0.5-0.3,0.8-0.4c0.2,0.5,0.6,0.9,1.1,0.9c0.3,0,0.5-0.1,0.7-0.3l0.4-0.4l0-0.4c0-0.1,0-0.2,0-0.3
			c0.1,0,0.3,0,0.4,0c0.2,0,0.4,0,0.6,0c0.6,0,1.1-0.6,1-1.2c0-0.6-0.5-1.1-1.1-1.1c-0.4,0-0.9,0-1.4,0c-0.1-0.2-0.1-0.4-0.2-0.6
			l-0.1-0.2l-0.1-0.2c-0.4-0.5-1-0.5-1.3-0.3c-0.6,0.3-0.7,0.8-0.7,1.7C30.6,6,30,6.3,29.4,6.5C29.2,6.2,29,6,28.8,5.9l-0.3-0.1
			c-0.6-0.2-1,0.1-1.3,0.4c-0.4,0.5-0.2,1.1,0.1,1.7c-0.5,0.4-1,0.9-1.4,1.5c-0.1,0-0.2-0.1-0.3-0.1l-0.2-0.1l-0.2,0
			c-0.6,0.1-0.9,0.5-1,0.8c-0.1,0.6,0.2,1,0.6,1.3c-0.1,0.2-0.2,0.5-0.3,0.7c-0.6-0.1-1.2-0.1-1.8,0c0-0.1-0.1-0.3-0.2-0.4
			c0.2-0.2,0.3-0.3,0.3-0.3l0.1-0.2c0.2-0.6,0-1-0.3-1.3c-0.4-0.3-0.9-0.3-1.3-0.2c-0.4-0.5-0.8-1-1.4-1.4c0.1-0.1,0.1-0.2,0.2-0.4
			c0.2-0.5,0.1-1.1-0.4-1.4c-0.5-0.3-1.1-0.3-1.5,0.2c-0.1,0.1-0.3,0.3-0.4,0.4c-0.6-0.3-1.3-0.5-2-0.6c0-0.1,0-0.2,0-0.3l0-0.2
			L16,5.6c-0.2-0.6-0.8-0.8-1.1-0.8c-0.7,0.1-1,0.7-1.2,1.4c-0.5,0-1,0.1-1.5,0.2c-0.4,0-0.8,0.3-0.9,0.7c-0.2,0.4-0.1,0.8,0.2,1.2
			c0.3,0.3,0.7,0.5,1,0.4c0.3,0,0.6-0.1,0.9-0.1c0,0.6,0.2,1.1,0.8,1.2c0.2,0.1,0.5,0.1,0.8,0l0.5-0.2l0.2-0.4
			c0.1-0.1,0.1-0.3,0.2-0.4c0.4,0.1,0.7,0.2,1,0.3c-0.2,0.5-0.2,1.1,0.4,1.4c0.6,0.4,1.1,0.1,1.5-0.2c0.2,0.2,0.3,0.4,0.5,0.5
			c-0.3,0.2-0.3,0.3-0.4,0.3l-0.2,0.3c-0.2,0.6,0,1,0.3,1.3c0.2,0.2,0.3,0.2,0.5,0.3c-0.2,0.1-0.3,0.2-0.5,0.3l-0.6-0.1
			c-0.5-0.1-1.1,0.2-1.3,0.7L16.4,15l-0.1,0.2c0,0.1,0,0.2,0,0.3c-1.3,1.7-2.3,3.9-2.8,6.3c-1.7,0.3-5.7,1.2-7.8,3.5
			c-2.3,0.6-7,1.8-8.1,2.6c-0.3,0.2-0.5,0.5-0.5,0.8c-0.1,0.3,0,0.7,0.2,0.9c0.4,0.5,1.2,0.7,1.7,0.3c0.6-0.4,4.4-1.5,7.7-2.3
			l0.4-0.1l0.2-0.3c1.2-1.5,4.1-2.4,5.8-2.7c0,0.1,0,0.2,0,0.2l0,0c0,0.1-0.1,0.4-0.1,0.6L13,25.5c-0.1,0.5-0.2,0.9-0.3,1.4
			c0.2-0.2,0.5-0.3,0.7-0.5c0.7-0.5,1.4-1.1,2.3-1.1c0-0.1,0-0.2,0-0.3c0-2.4,1-5.9,3-8.2l3.6,0.6c0.6,0.1,1.2-0.3,1.3-1l0-0.1
			l0-1.3c0-0.2-0.1-0.4-0.2-0.6c0.2,0,0.4,0,0.6,0c-0.1,0.1-0.1,0.3-0.1,0.4l-0.2,1.3l0,0.1c0.1,0.6,0.7,1.1,1.3,1l4.3-0.6
			c2.3,2.3,3.4,5.8,3.4,8.3c0,0.3,0,0.6,0,0.8c0.9-0.2,1.9-0.2,2.8,0c-0.1-0.4-0.2-0.9-0.3-1.3c1.7,0.4,4.6,1.2,5.9,2.8l0.3,0.3
			l0.3,0.1c4.2,1,9.1,2.4,9.8,2.9c0.5,0.4,1.3,0.4,1.8-0.1c0.2-0.2,0.3-0.6,0.3-0.9S53.2,29,52.9,28.7z"/>
		<path class="st3" d="M43.2,34.3c-0.1,0-0.1,0-0.2,0c0,0-0.1,0-0.1-0.1C43,34.3,43.1,34.3,43.2,34.3z"/>
	</g>
</g>
<g id="colors" class="st0">
	<path class="st4" d="M49.4,28.7c-0.9-0.4-1.8-0.6-2.7-0.8c-0.1,0-0.2,0-0.2,0c-1.4-0.5-2.9-0.9-4.3-1.4c-0.2-0.1-0.3,0-0.4,0
		c-0.4-0.3-0.8-0.7-1.3-1c-0.5-0.4-1-0.7-1.6-0.9c-2.1-1-4.4-1.5-6.7-1.8c-0.4-0.1-0.5,0.3-0.4,0.6c-0.3,0.2-0.5,0.4-0.8,0.7
		c-0.3,0.4-0.4,0.8-0.8,1.2c-0.3,0.4-0.8,0.7-1.2,0.9c-1.1,0.5-2.3,0.6-3.5,0.7c-2.3,0.1-4.5,0.2-6.5-1.1c-0.9-0.6-1.5-1.4-2.2-2.2
		c-0.6-0.9-1.7-0.5-2.6-0.3c-1.3,0.3-2.6,0.5-3.9,0.9c-0.3,0.1-0.6,0.2-0.8,0.3c-0.1-0.1-0.3-0.1-0.4,0c-0.3,0.2-0.6,0.4-0.9,0.6
		c-0.3,0.2-0.5,0.4-0.7,0.6c-0.1,0.1-0.1,0.1-0.1,0.2c-0.3,0.3-0.4,0.5-0.8,0.6c-0.4,0.1-0.8,0.2-1.2,0.3c-0.8,0.2-1.7,0.4-2.5,0.5
		c-0.8,0.2-1.5,0.3-2.2,0.7c-0.1,0.1-0.2,0.2-0.2,0.3c-0.2,0-0.4,0.2-0.4,0.5v20.4c0,0,0,0,0,0.1h0c-0.6,0-0.6,1,0,1h49.2
		c0.1,0,0.1,0,0.2,0c0.3,0.3,0.9,0.1,0.9-0.3V29.1C50.2,28.7,49.7,28.5,49.4,28.7z"/>
	<path class="st5" d="M42.1,35c-0.8-0.2-1.4-0.7-2-1.2c-0.7-0.5-1.3-0.9-2-1.4c-1-0.6-2-1.2-3.1-1.8c-0.2-0.9-0.4-1.9-0.6-2.8
		c-0.2-1-0.4-2.1-0.5-3.1c-0.1-1-0.2-2.1-0.5-3.1c-1-3.3-3.2-6.6-6.5-8C25,12.9,23,13,21.2,13.8c0,0,0,0-0.1,0
		c-0.8,0.2-1.6,0.6-2.3,1.2c-0.8,0.4-1.4,1-1.9,1.7c-0.7,1-1.1,2.1-1.3,3.3c-0.1,0.1-0.1,0.2-0.2,0.3c0,0.1,0,0.1,0,0.2
		c-0.2,0.3-0.3,0.6-0.5,1c-0.1,0.4-0.2,0.9-0.3,1.3c-0.2,0.8-0.3,1.7-0.4,2.5c0,0.3,0,0.5,0,0.8c-0.2,0.7-0.4,1.4-0.3,2.1
		c0,0,0,0,0,0c-0.1,0.7-0.3,1.3-0.4,2c-0.1,0.2-0.1,0.5-0.2,0.7c-0.1,0-0.2,0-0.3,0.1c-0.4,0.1-0.7,0.3-1,0.5
		c-0.1,0.1-0.3,0.2-0.4,0.2c-0.2,0-0.3,0.1-0.5,0.2c0,0,0,0,0,0c-0.4,0.1-0.8,0.3-1.2,0.5c-0.7,0.4-1.5,0.7-2.2,1.1
		c-1.5,0.7-3,1.5-4.4,2.4c-0.1,0.1-0.2,0.2-0.2,0.3c-0.2,0.1-0.4,0.2-0.7,0.3c-0.3,0.1-0.2,0.6,0.1,0.6c0.2,0,0.3,0,0.4,0
		c0,0,0,0,0,0h0c0.1,0,0.1,0,0.2,0c0,0,0,0,0,0c0.9,0.5,2.1,0.6,3,0.9c1.1,0.3,2.1,0.7,3.2,1.1c1,0.4,2,0.6,3.1,1
		c0.8,0.4,1.7,0.7,2.6,1c0,0.1,0,0.3,0.2,0.4c0.8,0.3,1.6,0.7,2.4,0.9c0.4,0.1,0.8,0.3,1.2,0.4c0,0,0.1,0,0.1,0.1
		c0,0,0.1,0.1,0.1,0.1c0.3,0.1,0.6,0.3,0.9,0.4c0.4,0.2,0.8,0.3,1.2,0.1c0.1,0,0.1-0.1,0.2-0.1c0,0,0.1,0,0.1,0
		c1-0.7,2.1-1.3,3.3-1.8c0.1-0.1,0.2-0.1,0.3-0.2c0.1,0,0.2,0,0.3,0c1.2-0.4,2.3-0.9,3.3-1.6c0.1,0.1,0.4,0.2,0.6,0.1
		c1.7-0.9,3.4-1.5,5.2-2c0.9-0.2,1.7-0.4,2.6-0.5c0.8-0.1,1.5-0.3,2.2-0.8c0.8-0.1,1.6-0.2,2.4-0.3c0.1,0,0.2-0.1,0.3-0.1
		c0,0,0.1,0,0.1,0C42.5,36.1,42.7,35.1,42.1,35z M29.2,21.2c0.1,0.4,0.2,0.8,0.2,1.2c0,0.5-0.1,0.9-0.2,1.3
		c-0.1,0.2-0.1,0.5-0.2,0.7c-0.2,0.1-0.3,0.2-0.5,0.3c-0.2,0.1-0.4,0.3-0.7,0.4c-0.4,0.2-0.8,0.6-1.2,0.8c-0.3,0.2-0.6,0.4-1,0.5
		c-0.5,0.1-1.1,0.1-1.6,0c-1.4-0.1-2.8-0.3-4-1.1c-1-0.6-1.9-2-1.5-3.2c0.1-0.4,0.2-0.7,0-1c0.3-0.1,0.7-0.1,1.1-0.1
		c1.2-0.1,2.4-0.2,3.6-0.2C25.2,21,27.3,20.9,29.2,21.2z"/>
	<path class="st6" d="M33.9,24.7c0,0,4.6,0.4,6.2,3.1l10.1,2.3v-1l-8.4-2.6l-2.1-1.7l-3.8-1.4l-2.2-0.6L33.9,24.7z"/>
	<path class="st6" d="M14.1,24.7c0,0-4.6,0.4-6.2,3.1l-10.1,2.3v-1l8.4-2.6l2.1-1.7l3.8-1.4l2.2-0.6L14.1,24.7z"/>
	<path class="st6" d="M50,34.8c0,0-24.5,5.5-28.8,11.6c0,0-5.3-5-22.6-9.9l3.7-1.3l-3-0.9l0.2-0.6l2.7,0.6l5-0.9L2,36.6
		c0,0,12.2,3.7,18.5,6.8l0.6-0.1c0,0,5.4-4.5,25.5-8.5c0,0-2.3-1.1-5.9-0.5l-1.6-1.2c0,0,4-0.4,6.5,0.2l6.4-1.7L48,33.7L50,34.8z"/>
	<path class="st7" d="M20.8,31.6c0,0,2.2-3,6.4,0c0,0,1.8,0,2-0.7c0.2-0.8,0.2-2.1,0.2-2.1s3.1,0.2,3.7-0.7c0.6-0.9,0.8-3.3,0.8-3.3
		l1,6.4c0,0-0.5-3-6.3,1.5c-3.5,2.7-7.8,3.4-10.9-0.1c-1.5-1.7-1.9-3.4-4.2-3.1l0.7-4.3c0,0,0.1,2.6,1.8,3.1
		c1.7,0.5,2.3,0.4,2.3,0.4S17,32,20.8,31.6z"/>
	<path class="st8" d="M18.6,21.3c0,0,7-0.5,10.6-0.1c0.6,4.3-2.3,5-5.8,5.2C21.7,26.6,18.2,25.5,18.6,21.3z"/>
	<path class="st1" d="M28.2,21c0,0,0.9,0.9,0.5,3.1c0.4-0.6,0.5-2.9,0.5-2.9L28.2,21z"/>
	<path class="st1" d="M19.6,21c0,0-0.9,0.9-0.5,3.1c-0.4-0.6-0.5-2.9-0.5-2.9L19.6,21z"/>
</g>
<g id="outline" class="st0">
	<path class="st9" d="M29.4,28.7c3.8-0.1,4.4-0.6,4.4-3.7c0-4.3-2.8-11.8-10.3-11.8c-6.4,0-9.1,7.5-9.1,11.8c0,3,0.8,3.6,3.8,3.7"/>
	<g class="st1">
		<path d="M28.6,26.3c0.9,1.4,1.5,3.4,0.7,5c-0.3,0.3-0.6,0.4-1,0.5c-2.6,0.7-5.4,0.6-8,0.3c-0.7-0.1-1.4-0.3-2-0.8
			c-0.7-1.1-0.6-2.7,0.3-3.6c0.1-0.1,0.3,0,0.2,0.2c-0.6,0.9-0.7,2.4-0.2,3c0.4,0.4,1.1,0.5,1.7,0.6c2.8,0.2,6,0.6,8.6-0.6
			c0.6-1.4,0-3.1-0.5-4.5C28.3,26.3,28.5,26.2,28.6,26.3L28.6,26.3z"/>
	</g>
	<g class="st1">
		<path d="M18.9,18.6c0.6-1,2-1.8,3.1-1c0.4,0.2,0.6,0.6,0.7,0.9c0,0.1,0,0.3-0.1,0.3c-0.1,0-0.2,0-0.3-0.1
			c-0.4-0.3-0.8-0.6-1.3-0.5c-0.5,0.1-1,0.5-1.5,0.8C19.1,19.3,18.6,18.9,18.9,18.6L18.9,18.6z"/>
	</g>
	<g class="st1">
		<path d="M28.6,18.6c-1-0.6-1.9-1.1-2.8,0c-0.8,0.3-0.2-1,0.2-1.3c0.6-0.6,1.7-0.4,2.3,0c0.4,0.3,1.2,0.8,0.8,1.3
			C28.9,18.7,28.7,18.7,28.6,18.6L28.6,18.6z"/>
	</g>
	<path class="st10" d="M29.1,21.3c0.6,1.6,0,5.1-5.1,5.1s-5.9-3.4-5.1-5.1c0.5-0.2,2.3-0.2,5.1-0.2S28.6,21.1,29.1,21.3z"/>
	<line class="st10" x1="24.1" y1="21.2" x2="24.3" y2="26.2"/>
	<line class="st10" x1="27.1" y1="21.2" x2="27.5" y2="25.6"/>
	<line class="st10" x1="21.2" y1="21.3" x2="21.1" y2="25.8"/>
	<path class="st1" d="M24.6,16.1l0.1-1.2c0-0.1,0.1-0.2,0.2-0.2l4.3-0.6c0.1,0,0.2,0,0.2,0.1l0.4,1.2c0,0.1-0.1,0.2-0.1,0.2
		l-4.9,0.7C24.7,16.3,24.6,16.2,24.6,16.1z"/>
	<path class="st1" d="M17.4,15.4l0.5-1.1c0-0.1,0.1-0.1,0.2-0.1l4.3,0.7c0.1,0,0.1,0.1,0.1,0.2l0,1.2c0,0.1-0.1,0.1-0.2,0.1
		l-4.9-0.8C17.4,15.6,17.3,15.5,17.4,15.4z"/>
	<g class="st1">
		<path d="M34.1,24.6c0.7,2.8,1.2,5.6,1.4,8.5c0,0.1,0,0.1-0.1,0.1c-0.9-2.6-1-5.8-1.8-8.5C33.5,24.4,34,24.3,34.1,24.6L34.1,24.6z"
			/>
	</g>
	<g class="st1">
		<path d="M35,30.3c2.9,1.4,5.5,3.3,8,5.3c0.1,0,0.1,0.1,0,0.2c0,0.1-0.1,0.1-0.2,0c-1.3-0.9-2.7-1.7-4-2.6l-2-1.3
			c-0.7-0.4-1.4-0.8-2-1.2C34.6,30.6,34.8,30.2,35,30.3L35,30.3z"/>
	</g>
	<g class="st1">
		<path d="M13.4,30.8c-0.2,0.3-0.5,0.3-0.7,0.4c-1.8,0.7-3.4,1.6-5.1,2.5c0,0-2.8,1.6-2.8,1.6c-0.9,0.5-1.9,1.1-2.9,1.5
			c-0.1,0-0.1,0-0.2-0.1c3.4-2.1,7-4.5,10.8-6c0.3-0.1,0.5-0.3,0.8-0.2C13.4,30.6,13.4,30.7,13.4,30.8L13.4,30.8z"/>
	</g>
	<g class="st1">
		<path d="M16.3,30.6c1.7,1.9,3.2,4,4.1,6.4c0,0.1,0,0.1-0.1,0.2c-0.1,0-0.1,0-0.2-0.1c-1.3-2.2-2.5-4.3-4-6.3
			C16,30.7,16.2,30.5,16.3,30.6L16.3,30.6z"/>
	</g>
	<g class="st1">
		<path d="M24.6,35.8c2.4-2.2,4.9-4.5,7.9-5.8c0.1,0,0.2,0.1,0.1,0.2c-2.7,1.8-5.4,3.6-7.9,5.8C24.6,36.1,24.4,35.9,24.6,35.8
			L24.6,35.8z"/>
	</g>
	<g class="st1">
		<path d="M14.5,24.8c0.2,0.1,0.1,0.1,0.1,0.2c0,0.1-0.1,0.3-0.1,0.4C14.4,26.3,14,28,13.9,29c-0.3,1.4-0.5,2.8-0.8,4.1
			c0,0.1-0.1,0.1-0.1,0.1c-0.1,0-0.1-0.1-0.1-0.1c0.1-1.4,0.3-2.8,0.5-4.2c0.1-1,0.4-2.1,0.6-3.1c0-0.2,0.1-0.6,0.2-0.8
			c0,0,0-0.1,0-0.1C14.1,24.7,14.4,24.8,14.5,24.8L14.5,24.8z"/>
	</g>
	<g class="st1">
		<path d="M23.8,32.1c-0.2-0.2-0.1-0.4-0.1-0.6c0,0,0-0.6,0-0.6c0-0.4,0-1.7,0.3-1.2c0.1,0.6,0.1,1.2,0.1,1.8l0,0.3
			C24.3,31.9,24,32.2,23.8,32.1L23.8,32.1z"/>
	</g>
	<g class="st1">
		<g>
			<path d="M25.1,13.8c0.7-4.7,5-7.6,9.7-7.2c0.2,0,0.2,0.2,0,0.2c-0.5,0-1.1,0.1-1.6,0.1c-3.7,0.3-6.8,3.3-7.1,7
				C26,14.6,25,14.4,25.1,13.8L25.1,13.8z"/>
		</g>
		<g>
			<path d="M25.4,10.1c0.9,0.3,1.8,0.8,2.6,1.4c0.1,0,0.1,0.1,0,0.2C27.8,12,24.5,10.2,25.4,10.1L25.4,10.1z"/>
		</g>
		<g>
			<path d="M28.2,6.7c0.2,0.2,2.3,2.8,1.5,2.5C29.5,9.1,27.4,6.5,28.2,6.7L28.2,6.7z"/>
		</g>
		<g>
			<path d="M32.4,5.2c0.3,0.9,0.6,1.9,0.5,2.9c0,0.1-0.1,0.1-0.1,0.1C32.4,8.2,31.8,4.5,32.4,5.2L32.4,5.2z"/>
		</g>
	</g>
	<g class="st1">
		<g>
			<path d="M21.2,13.9c-0.5-4.7-4.4-6.8-8.9-6.2c-0.2,0-0.2-0.2,0-0.2c4.8-1,9.1,1.3,9.9,6.4C22.3,14.5,21.2,14.6,21.2,13.9
				L21.2,13.9z"/>
		</g>
		<g>
			<path d="M22.1,10.6c-0.2,0.2-3,2-2.7,1.2C19.6,11.6,22.4,9.8,22.1,10.6L22.1,10.6z"/>
		</g>
		<g>
			<path d="M19.4,7.3c-1.9,3.6-2.9,2.8-0.2-0.1C19.3,7.1,19.5,7.2,19.4,7.3L19.4,7.3z"/>
		</g>
		<g>
			<path d="M15.1,5.9c-0.1,1-0.1,2-0.5,2.9c0,0.1-0.1,0.1-0.2,0.1C14.1,8.8,14.8,5.1,15.1,5.9L15.1,5.9z"/>
		</g>
	</g>
	<g class="st1">
		<path d="M36.8,36.2c-3.5,1-8.7,2.3-11.6,2c0,0-2.2,2.4-2.2,2.4c-0.1,0.1-0.3,0-0.2-0.2c0,0,2-2.6,2-2.6l0.1-0.1
			c4,0,8-0.8,11.8-1.8C36.9,35.9,36.9,36.1,36.8,36.2L36.8,36.2z"/>
	</g>
	<g class="st1">
		<path d="M9.8,36.5c2.6,0.7,5.4,0.8,8.1,0.8c0,0,0.1,0.2,0.1,0.2l0.9,2.8c0,0.1-0.2,0.2-0.2,0.1c0,0-1.1-2.7-1.1-2.7l0.2,0.2
			c-1.3,0-2.7-0.1-4-0.3c-1.3-0.2-2.7-0.4-4-0.8c-0.1,0-0.1-0.1-0.1-0.2C9.7,36.5,9.8,36.5,9.8,36.5L9.8,36.5z"/>
	</g>
	<g class="st1">
		<path d="M47,34.9c-9,1.9-18,4.3-26.2,8.7c-6.6-2.7-13.3-5.2-20.1-7.1c-0.1,0-0.1-0.3,0.1-0.2c7,1.4,13.6,4.1,20.2,6.8
			c4.9-3.1,12.9-5.6,19.2-7.2c2.3-0.5,4.5-1,6.8-1.3C47.1,34.7,47.1,34.9,47,34.9L47,34.9z"/>
	</g>
	<path class="st10" d="M39.2,33c0,0,4-0.1,6.4,0.3l4.9-1.3"/>
	<path class="st10" d="M7.8,33.3c0,0-3.2,0.6-5.6,1.1l-2.5-0.6"/>
	<path class="st10" d="M33.8,23c0,0,5.8,0.8,8,3.4c0,0,9.2,2.2,10.3,3.2"/>
	<path class="st10" d="M14.4,23c0,0-5.8,0.8-8,3.4c0,0-7,1.7-8.1,2.5"/>
	<g class="st1">
		<g>
			<path class="st11" d="M43.4,31.1"/>
		</g>
	</g>
	<g class="st1">
		<path d="M30.9,20c0.1,0.3,0.1,0.6,0.1,1l-0.2-0.2c0.2,0,0.3,0.1,0.5,0.2c0.1,0.1,0.1,0.2,0,0.2c-0.2,0-0.7,0.1-0.7-0.2
			C30.5,20.9,30.5,19.6,30.9,20L30.9,20z"/>
	</g>
</g>
<g id="Smaller">
	<g>
		<path class="st12" d="M17,25.8c0.8-0.6,1.7-1.3,2.5-1.4c0.9-0.2,1.5,0.2,2.3,0.8c0.1,0.1,0.3,0.2,0.5,0.1c0.2-0.1,0.3-0.3,0.3-0.6
			c-0.2-0.6-0.5-1.2-1.2-1.6c-1.8-1.3-4.2,0.1-5.3,1.8C15.7,25.5,16.4,26.2,17,25.8z"/>
		<path class="st12" d="M27.8,25c1.5-1.8,3-1.1,4.8,0c0.2,0.2,0.5,0.2,0.8,0c0.8-0.8-0.7-1.7-1.3-2.1c-1.1-0.8-2.9-1-4,0
			C27.5,23.2,26.4,25.5,27.8,25z"/>
		<path class="st12" d="M15.8,29.2l-0.1,0.1l-0.1,0.1c-0.8,1.8-0.6,4,0.5,5.7c1.1,1.7,3.4,3.6,8.7,3.6c4.9,0,7.3-1.9,8.4-3.5
			c1.4-2,1.4-4.4,0.8-5.9l-0.1-0.2l-0.2-0.1c-1-0.4-3.8-0.4-9-0.4C19.6,28.8,16.8,28.8,15.8,29.2z M19.4,36.9
			c-1.3-0.6-2.1-1.4-2.5-2.2c-0.1-0.2-0.3-0.4-0.4-0.6c-0.3-2.1,0-3.5,0.4-4.2c0.6-0.1,1.6-0.1,2.7-0.2L19.4,36.9z M32.5,29.8
			c0.4,0.7,0.7,2.1,0.4,4.1c-0.1,0.3-0.3,0.6-0.5,0.9c-0.3,0.4-0.7,0.9-1.3,1.3l-0.6-6.5C31.4,29.7,32,29.8,32.5,29.8z M29.7,29.7
			l0.7,7c-1.1,0.6-2.6,1.1-4.6,1.2c0,0,0,0,0,0l-0.3-8.2C27.1,29.6,28.5,29.6,29.7,29.7z M24.9,37.9c0,0-0.1,0-0.1,0
			c-1.9,0-3.4-0.3-4.6-0.7l0.3-7.6c1.2,0,2.6,0,4.1,0L24.9,37.9C24.9,37.9,24.9,37.9,24.9,37.9z"/>
		<path class="st12" d="M43.3,4.4c-1.2-0.1-2.4-0.1-3.5,0.1c-0.2-0.8-0.4-1.6-0.6-2.4c-0.5-0.6-0.5,1-0.2,2.5c-1.9,0.3-3.7,1-5.3,2
			c-0.7-0.9-1.4-1.8-1.6-1.9c-0.8-0.2,0,1.1,0.9,2.4c-1.6,1.1-3,2.5-4.1,4.2c-0.5-0.3-1.1-0.5-1.6-0.7c-0.7,0.1,0.1,0.7,1.2,1.4
			c-0.6,1.1-1.1,2.3-1.4,3.6c-1-0.2-2-0.3-3.1-0.3c-0.9,0-1.7,0.1-2.5,0.3c-0.3-1.2-0.7-2.3-1.2-3.2c0.7-0.4,1.2-0.8,1.3-0.9
			c0.2-0.6-0.7-0.3-1.7,0.2c-1-1.7-2.4-3.1-3.9-4c0.3-0.5,0.7-1.1,1-1.8c0.1-0.2-0.2-0.4-0.4-0.2c-0.6,0.6-1,1.2-1.4,1.7
			c-1.7-0.9-3.7-1.5-5.8-1.6c0.1-0.7,0.1-1.5,0.2-2.2C9.3,2.6,8.9,4,8.6,5.6c-1.2,0-2.5,0.1-3.8,0.4C4.5,6,4.6,6.4,4.9,6.3
			c1.2-0.2,2.4-0.2,3.6-0.1c-0.2,1.1-0.2,2.1,0,2.2c0.1,0.1,0.2,0,0.3-0.1C9,7.6,9.2,7,9.3,6.3c2,0.2,3.8,0.8,5.3,1.7
			c-1.4,2.1-0.8,2.6,0.7,0.5c1.4,1,2.5,2.2,3.3,3.8c-0.8,0.5-1.5,1-1.6,1.1c-0.3,0.7,0.8,0.2,2-0.4c0.4,0.9,0.7,1.9,0.9,2.9
			c-1.3,0.4-2.4,1-3.5,1.8l-1.7-0.3c-0.2,0-0.3,0.1-0.4,0.2l-0.8,1.9c0,0.2,0.1,0.3,0.2,0.3l0.3,0c-4.1,4.6-6,11.5-6,16
			c0,5.3,1.7,6.5,6.4,6.7c-0.4,1.3-0.2,2.8,0.6,4c1,0.9,2.3,1.1,3.4,1.3c4.5,0.5,9.2,0.6,13.7-0.5c0.6-0.2,1.2-0.3,1.7-0.9
			c0.6-1.2,0.7-2.6,0.5-4c6.4-0.1,7.6-1.3,7.6-6.8c0-4.5-2-12.2-7.4-16.8l-0.5-1.5c0-0.1-0.2-0.2-0.3-0.2l-1.2,0.2
			c-1.2-0.7-2.5-1.3-3.9-1.7c0.2-1.1,0.6-2.2,1.1-3.3c1,0.5,1.8,0.8,1.9,0.6c0.1-0.1,0.1-0.2,0-0.3c-0.5-0.4-1-0.7-1.5-1.1
			c0.9-1.6,2.1-3,3.5-4.1c0.5,0.6,0.9,1.1,1,1.2c0.6,0.2,0.3-0.7-0.4-1.6c1.4-1,3.1-1.7,4.8-2.1c0.2,1.1,0.5,2,0.7,1.9
			C39.9,7.2,40,7.1,40,7c0-0.6,0-1.3-0.1-1.9c0.2,0,0.5-0.1,0.7-0.1c0.9-0.1,1.8-0.1,2.7-0.2C43.6,4.8,43.5,4.4,43.3,4.4z
			 M31.1,17.8l-4.7,0.6c-0.2,0-0.3,0.1-0.3,0.3l-0.2,2.1c0,0.2,0.2,0.3,0.3,0.2l8.1-1.1c5,4.4,6.8,11.7,6.8,16c0,5-0.9,5.8-6.9,5.9
			c-0.3-1.4-0.9-2.7-1.6-3.7c-0.1-0.2-0.5,0-0.4,0.2c0.9,2.4,1.9,5.4,0.9,7.7c-2.5,1.1-5.2,1.4-8,1.4c0,0,0-0.5,0-0.5
			c-0.1-1-0.1-2.1-0.2-3.1c-0.6-0.9-0.5,1.4-0.6,2.1l0,1c0,0.2,0,0.3,0,0.5c-1.9,0-3.9-0.2-5.7-0.4c-1.1-0.2-2.2-0.4-2.9-1.1
			c-0.9-1.1-0.7-3.6,0.3-5.2c0.1-0.2-0.2-0.4-0.3-0.3c-0.4,0.3-0.7,0.8-0.9,1.2c-4.9-0.2-5.9-1.2-5.9-5.9c0-4.5,1.9-11.5,6.1-15.8
			l7,1.2c0.2,0,0.3-0.1,0.3-0.2l-0.1-2.1c0-0.1-0.1-0.2-0.2-0.3l-4.4-0.7c0.7-0.5,1.5-0.9,2.4-1.1c0,0,0,0.1,0,0.1
			c0.1,1.2,1.9,1,1.7-0.2c0-0.1-0.1-0.3-0.1-0.4c0.7-0.1,1.5-0.2,2.3-0.2c1,0,2,0.1,2.9,0.3c0,0.1-0.1,0.2-0.1,0.4
			c-0.2,1.1,1.6,1.4,1.7,0.2c0-0.1,0-0.2,0-0.3C29.4,17,30.3,17.4,31.1,17.8z"/>
		<path class="st12" d="M37.1,29.5c0.2,0,0.3-0.3,0.1-0.4c-0.2-0.1-0.3-0.1-0.5-0.2c0-0.5,0-0.9-0.2-1.4c-0.6-0.7-0.7,1.4-0.6,1.7
			C36,29.7,36.7,29.5,37.1,29.5z"/>
	</g>
	<path class="st13" d="M40.9,31.1c-0.8-3.1-2.2-6-4.1-8.6c-1-1.3-2.1-2.6-3.4-3.6c-1.3-1-3.1-1.7-4.7-2.3c-1.6-0.5-3.3-0.7-5-0.5
		c-0.8-0.1-1.6-0.1-2.4,0.1c-1.2,0.3-2.3,0.9-3.4,1.3c-0.7,0.3-1.4,0.6-1.9,1.2c-0.7,0.3-1.4,0.7-2,1.2c-0.5,0.4-0.8,1-1.1,1.5
		c-0.2,0.4-0.2,0.8-0.2,1.2c-0.7,1-1.3,2-1.8,3C10,28,9.3,30.6,8.6,33c-0.6,2.3-0.8,4.8,0.6,6.8c0.7,1,1.6,1.5,2.7,1.9
		c0.6,0.2,1.2,0.3,1.9,0.4c0.2,0,0.5,0.1,0.8,0.1c0,1,0,2.1,0.4,3.1c0.8,2.2,3.1,2.2,5.1,2.3c2.4,0.1,4.9,0.1,7.4-0.1
		c1.2-0.1,2.4-0.2,3.6-0.4c1-0.2,2-0.3,2.5-1.3c0.5-0.9,0.4-2.1,0.3-3.1c0-0.1,0-0.1,0-0.2c0.9,0,1.8-0.1,2.7-0.2
		c0.9-0.2,1.7-0.4,2.5-0.8c0.7-0.3,1.4-0.6,1.8-1.3c0.4-0.6,0.5-1.3,0.5-2c0.1-0.9,0.2-1.7,0.2-2.6C41.5,34.2,41.3,32.6,40.9,31.1z"
		/>
	<path class="st14" d="M20.2,47.4c-4.9,0-6-4.4,4.3-4.4s10.1,3.6,4.8,4.4C24.1,48.2,20.2,47.4,20.2,47.4z"/>
	<path class="st14" d="M21.5,16.3c7.2,4.5,9.1,8.9,12.4,26.4c0,0,5.5-0.3,6.9-2.2C42,35.9,41.5,14,21.5,16.3z"/>
	<path id="XMLID_00000055686043335514087960000016735300030050171803_" class="st15" d="M16.4,29.7c0,0,13.5-1.3,17.2,0.3
		c0,0,1.5,8.6-8.8,8.3C14.6,38,15.7,33.6,16.4,29.7z"/>
	<g>
		<path d="M17,25.8c0.8-0.6,1.7-1.3,2.5-1.4c0.9-0.2,1.5,0.2,2.3,0.8c0.1,0.1,0.3,0.2,0.5,0.1c0.2-0.1,0.3-0.3,0.3-0.6
			c-0.2-0.6-0.5-1.2-1.2-1.6c-1.8-1.3-4.2,0.1-5.3,1.8C15.7,25.5,16.4,26.2,17,25.8z"/>
		<path d="M27.8,25c1.5-1.8,3-1.1,4.8,0c0.2,0.2,0.5,0.2,0.8,0c0.8-0.8-0.7-1.7-1.3-2.1c-1.1-0.8-2.9-1-4,0
			C27.5,23.2,26.4,25.5,27.8,25z"/>
		<path d="M15.8,29.2l-0.1,0.1l-0.1,0.1c-0.8,1.8-0.6,4,0.5,5.7c1.1,1.7,3.4,3.6,8.7,3.6c4.9,0,7.3-1.9,8.4-3.5
			c1.4-2,1.4-4.4,0.8-5.9l-0.1-0.2l-0.2-0.1c-1-0.4-3.8-0.4-9-0.4C19.6,28.8,16.8,28.8,15.8,29.2z M19.4,36.9
			c-1.3-0.6-2.1-1.4-2.5-2.2c-0.1-0.2-0.3-0.4-0.4-0.6c-0.3-2.1,0-3.5,0.4-4.2c0.6-0.1,1.6-0.1,2.7-0.2L19.4,36.9z M32.5,29.8
			c0.4,0.7,0.7,2.1,0.4,4.1c-0.1,0.3-0.3,0.6-0.5,0.9c-0.3,0.4-0.7,0.9-1.3,1.3l-0.6-6.5C31.4,29.7,32,29.8,32.5,29.8z M29.7,29.7
			l0.7,7c-1.1,0.6-2.6,1.1-4.6,1.2c0,0,0,0,0,0l-0.3-8.2C27.1,29.6,28.5,29.6,29.7,29.7z M24.9,37.9c0,0-0.1,0-0.1,0
			c-1.9,0-3.4-0.3-4.6-0.7l0.3-7.6c1.2,0,2.6,0,4.1,0L24.9,37.9C24.9,37.9,24.9,37.9,24.9,37.9z"/>
		<path d="M43.3,4.4c-1.2-0.1-2.4-0.1-3.5,0.1c-0.2-0.8-0.4-1.6-0.6-2.4c-0.5-0.6-0.5,1-0.2,2.5c-1.9,0.3-3.7,1-5.3,2
			c-0.7-0.9-1.4-1.8-1.6-1.9c-0.8-0.2,0,1.1,0.9,2.4c-1.6,1.1-3,2.5-4.1,4.2c-0.5-0.3-1.1-0.5-1.6-0.7c-0.7,0.1,0.1,0.7,1.2,1.4
			c-0.6,1.1-1.1,2.3-1.4,3.6c-1-0.2-2-0.3-3.1-0.3c-0.9,0-1.7,0.1-2.5,0.3c-0.3-1.2-0.7-2.3-1.2-3.2c0.7-0.4,1.2-0.8,1.3-0.9
			c0.2-0.6-0.7-0.3-1.7,0.2c-1-1.7-2.4-3.1-3.9-4c0.3-0.5,0.7-1.1,1-1.8c0.1-0.2-0.2-0.4-0.4-0.2c-0.6,0.6-1,1.2-1.4,1.7
			c-1.7-0.9-3.7-1.5-5.8-1.6c0.1-0.7,0.1-1.5,0.2-2.2C9.3,2.6,8.9,4,8.6,5.6c-1.2,0-2.5,0.1-3.8,0.4C4.5,6,4.6,6.4,4.9,6.3
			c1.2-0.2,2.4-0.2,3.6-0.1c-0.2,1.1-0.2,2.1,0,2.2c0.1,0.1,0.2,0,0.3-0.1C9,7.6,9.2,7,9.3,6.3c2,0.2,3.8,0.8,5.3,1.7
			c-1.4,2.1-0.8,2.6,0.7,0.5c1.4,1,2.5,2.2,3.3,3.8c-0.8,0.5-1.5,1-1.6,1.1c-0.3,0.7,0.8,0.2,2-0.4c0.4,0.9,0.7,1.9,0.9,2.9
			c-1.3,0.4-2.4,1-3.5,1.8l-1.7-0.3c-0.2,0-0.3,0.1-0.4,0.2l-0.8,1.9c0,0.2,0.1,0.3,0.2,0.3l0.3,0c-4.1,4.6-6,11.5-6,16
			c0,5.3,1.7,6.5,6.4,6.7c-0.4,1.3-0.2,2.8,0.6,4c1,0.9,2.3,1.1,3.4,1.3c4.5,0.5,9.2,0.6,13.7-0.5c0.6-0.2,1.2-0.3,1.7-0.9
			c0.6-1.2,0.7-2.6,0.5-4c6.4-0.1,7.6-1.3,7.6-6.8c0-4.5-2-12.2-7.4-16.8l-0.5-1.5c0-0.1-0.2-0.2-0.3-0.2l-1.2,0.2
			c-1.2-0.7-2.5-1.3-3.9-1.7c0.2-1.1,0.6-2.2,1.1-3.3c1,0.5,1.8,0.8,1.9,0.6c0.1-0.1,0.1-0.2,0-0.3c-0.5-0.4-1-0.7-1.5-1.1
			c0.9-1.6,2.1-3,3.5-4.1c0.5,0.6,0.9,1.1,1,1.2c0.6,0.2,0.3-0.7-0.4-1.6c1.4-1,3.1-1.7,4.8-2.1c0.2,1.1,0.5,2,0.7,1.9
			C39.9,7.2,40,7.1,40,7c0-0.6,0-1.3-0.1-1.9c0.2,0,0.5-0.1,0.7-0.1c0.9-0.1,1.8-0.1,2.7-0.2C43.6,4.8,43.5,4.4,43.3,4.4z
			 M31.1,17.8l-4.7,0.6c-0.2,0-0.3,0.1-0.3,0.3l-0.2,2.1c0,0.2,0.2,0.3,0.3,0.2l8.1-1.1c5,4.4,6.8,11.7,6.8,16c0,5-0.9,5.8-6.9,5.9
			c-0.3-1.4-0.9-2.7-1.6-3.7c-0.1-0.2-0.5,0-0.4,0.2c0.9,2.4,1.9,5.4,0.9,7.7c-2.5,1.1-5.2,1.4-8,1.4c0,0,0-0.5,0-0.5
			c-0.1-1-0.1-2.1-0.2-3.1c-0.6-0.9-0.5,1.4-0.6,2.1l0,1c0,0.2,0,0.3,0,0.5c-1.9,0-3.9-0.2-5.7-0.4c-1.1-0.2-2.2-0.4-2.9-1.1
			c-0.9-1.1-0.7-3.6,0.3-5.2c0.1-0.2-0.2-0.4-0.3-0.3c-0.4,0.3-0.7,0.8-0.9,1.2c-4.9-0.2-5.9-1.2-5.9-5.9c0-4.5,1.9-11.5,6.1-15.8
			l7,1.2c0.2,0,0.3-0.1,0.3-0.2l-0.1-2.1c0-0.1-0.1-0.2-0.2-0.3l-4.4-0.7c0.7-0.5,1.5-0.9,2.4-1.1c0,0,0,0.1,0,0.1
			c0.1,1.2,1.9,1,1.7-0.2c0-0.1-0.1-0.3-0.1-0.4c0.7-0.1,1.5-0.2,2.3-0.2c1,0,2,0.1,2.9,0.3c0,0.1-0.1,0.2-0.1,0.4
			c-0.2,1.1,1.6,1.4,1.7,0.2c0-0.1,0-0.2,0-0.3C29.4,17,30.3,17.4,31.1,17.8z"/>
		<path d="M37.1,29.5c0.2,0,0.3-0.3,0.1-0.4c-0.2-0.1-0.3-0.1-0.5-0.2c0-0.5,0-0.9-0.2-1.4c-0.6-0.7-0.7,1.4-0.6,1.7
			C36,29.7,36.7,29.5,37.1,29.5z"/>
	</g>
</g>
</svg>
